Coordinates
version=1
nRows=23
nColumns=27
inDegrees=yes

Units are S.I. units (second, meters, Newtons, ...)
If the header above contains a line with 'inDegrees', this indicates whether rotational values are in degrees (yes) or radians (no).

endheader
time	pelvis_rotation	pelvis_tilt	pelvis_list	pelvis_tx	pelvis_ty	pelvis_tz	hip_flexion_r	hip_adduction_r	hip_rotation_r	knee_angle_r	knee_rotation_r	knee_adduction_r	knee_angle_r_beta	ankle_angle_r	subtalar_angle_r	mtp_angle_r	hip_flexion_l	hip_adduction_l	hip_rotation_l	knee_angle_l	knee_rotation_l	knee_adduction_l	knee_angle_l_beta	ankle_angle_l	subtalar_angle_l	mtp_angle_l
     10.59500000	      7.77555023	    -38.87659715	      5.38155830	     -0.12992841	      0.83991411	     -1.20356884	     77.75485267	    -19.03742470	    -18.74479364	     49.83632052	      0.00000000	      8.05746013	      0.86980788	      7.21300905	      0.00000000	      0.00000000	     76.41729219	     -5.32625299	    -13.20288141	     42.73996039	      0.00000000	     -9.28753102	      0.74595303	      2.14716368	      0.00000000	      0.00000000
     10.60000000	      8.38060601	    -38.52277878	      5.31660338	     -0.12906529	      0.84092159	     -1.20415339	     76.93529638	    -19.48121508	    -19.48000220	     49.54739869	      0.00000000	      7.80248080	      0.86476524	      7.17201207	      0.00000000	      0.00000000	     75.91899905	     -4.75089318	    -12.41088119	     42.30485351	      0.00000000	     -8.82579102	      0.73835898	      1.97156627	      0.00000000	      0.00000000
     10.60500000	      7.95056178	    -38.65883673	      4.75902534	     -0.12865676	      0.84194096	     -1.20389329	     76.63792897	    -19.05287900	    -20.09297019	     49.07052887	      0.00000000	      8.22352772	      0.85644229	      6.97193437	      0.00000000	      0.00000000	     75.96913361	     -5.29087375	    -12.52605106	     42.28142966	      0.00000000	     -9.26651961	      0.73795016	      1.88809384	      0.00000000	      0.00000000
     10.61000000	      7.96653588	    -38.64152463	      4.92089808	     -0.12829396	      0.84269143	     -1.20439311	     76.50795746	    -19.17603974	    -20.18212408	     48.87531922	      0.00000000	      8.34081482	      0.85303524	      6.94901592	      0.00000000	      0.00000000	     75.73963851	     -5.18448852	    -12.73789532	     42.02246695	      0.00000000	     -9.27040967	      0.73343041	      1.91314979	      0.00000000	      0.00000000
     10.61500000	      7.78158971	    -39.26698586	      5.70286175	     -0.12974141	      0.84259255	     -1.20518058	     77.76965013	    -19.09422880	    -18.64259282	     48.99409964	      0.00000000	      7.70832688	      0.85510835	      6.71362394	      0.00000000	      0.00000000	     76.23756457	     -4.97872010	    -13.31703808	     41.84529281	      0.00000000	     -8.73687637	      0.73033814	      1.68698859	      0.00000000	      0.00000000
     10.62000000	      7.16927966	    -38.68558230	      5.86204303	     -0.12841904	      0.84402644	     -1.20551850	     77.00421857	    -18.91928735	    -18.58150892	     48.57882746	      0.00000000	      8.30762461	      0.84786049	      6.63848613	      0.00000000	      0.00000000	     75.06253540	     -5.33456280	    -14.52292468	     41.36000646	      0.00000000	     -9.27841555	      0.72186829	      1.73381819	      0.00000000	      0.00000000
     10.62500000	      7.31851295	    -38.62565958	      5.61038272	     -0.12783361	      0.84503926	     -1.20578938	     76.50301110	    -18.99768817	    -19.27295428	     48.19470009	      0.00000000	      8.41633999	      0.84115620	      6.53546603	      0.00000000	      0.00000000	     74.89156542	     -5.25570121	    -14.17663617	     41.11976992	      0.00000000	     -9.26016229	      0.71767537	      1.60982069	      0.00000000	      0.00000000
     10.63000000	      7.25017408	    -38.60091561	      5.38961489	     -0.12765517	      0.84588101	     -1.20599747	     76.19696375	    -18.79525041	    -19.33739452	     47.81655111	      0.00000000	      7.95410468	      0.83455625	      6.35697620	      0.00000000	      0.00000000	     74.74708441	     -5.26653045	    -13.86033915	     40.88184761	      0.00000000	     -8.80550798	      0.71352285	      1.45104748	      0.00000000	      0.00000000
     10.63500000	      7.22190229	    -38.52606106	      5.46777126	     -0.12694965	      0.84682180	     -1.20642040	     75.89579265	    -18.99082631	    -19.86572543	     47.58208405	      0.00000000	      8.57274120	      0.83046403	      6.33186495	      0.00000000	      0.00000000	     74.43030993	     -5.27322359	    -14.25530564	     40.64082013	      0.00000000	     -9.24378712	      0.70931612	      1.46665420	      0.00000000	      0.00000000
     10.64000000	      7.12973828	    -38.36993341	      5.92911689	     -0.12655490	      0.84782244	     -1.20718215	     75.75809468	    -19.14082630	    -19.51670257	     47.34358577	      0.00000000	      8.65544579	      0.82630145	      6.20758169	      0.00000000	      0.00000000	     73.85538757	     -5.07321504	    -14.85560060	     40.12396063	      0.00000000	     -9.24116853	      0.70029522	      1.32830800	      0.00000000	      0.00000000
     10.64500000	      6.79131153	    -39.02631964	      6.23359038	     -0.12787732	      0.84789189	     -1.20760908	     76.77421358	    -18.80062298	    -18.41051516	     47.27810336	      0.00000000	      8.01661089	      0.82515857	      5.94202404	      0.00000000	      0.00000000	     74.46546886	     -5.14286782	    -15.14577964	     40.06582454	      0.00000000	     -8.72679320	      0.69928056	      1.17448028	      0.00000000	      0.00000000
     10.65000000	      6.64858578	    -38.39431118	      6.13176555	     -0.12613830	      0.84946401	     -1.20794175	     75.61841267	    -18.94564792	    -19.25677867	     46.79405279	      0.00000000	      8.73464703	      0.81671029	      5.91711846	      0.00000000	      0.00000000	     73.37452644	     -5.22619928	    -15.63392549	     39.58811253	      0.00000000	     -9.24222426	      0.69094291	      1.16107812	      0.00000000	      0.00000000
     10.65500000	      6.32218006	    -38.37964391	      6.22831128	     -0.12592027	      0.85032680	     -1.20827686	     75.52971169	    -18.78179664	    -19.05020348	     46.49396054	      0.00000000	      8.75609205	      0.81147269	      5.75692469	      0.00000000	      0.00000000	     73.07431710	     -5.35567153	    -16.11816779	     39.29981793	      0.00000000	     -9.24302155	      0.68591122	      1.06926049	      0.00000000	      0.00000000
     10.66000000	      5.98296592	    -38.67479971	      5.69485789	     -0.12622896	      0.85098635	     -1.20806209	     75.51933187	    -18.21156389	    -19.07382239	     46.04212825	      0.00000000	      8.19743090	      0.80358673	      5.49660196	      0.00000000	      0.00000000	     73.39639986	     -5.72667579	    -15.72920505	     39.29476810	      0.00000000	     -8.78193976	      0.68582308	      0.91062658	      0.00000000	      0.00000000
     10.66500000	      5.91735573	    -38.33342151	      6.25056779	     -0.12526188	      0.85206615	     -1.20891074	     75.15253074	    -18.59996844	    -19.12656675	     45.87095343	      0.00000000	      8.85557314	      0.80059917	      5.48377093	      0.00000000	      0.00000000	     72.54877645	     -5.50056537	    -16.65529081	     38.76152979	      0.00000000	     -9.23888364	      0.67651632	      0.88655227	      0.00000000	      0.00000000
     10.67000000	      5.94950716	    -38.45418145	      6.05428999	     -0.12502060	      0.85286417	     -1.20911751	     74.96221971	    -18.58237352	    -19.59855225	     45.54326342	      0.00000000	      8.90725912	      0.79487990	      5.34934099	      0.00000000	      0.00000000	     72.59495137	     -5.51216682	    -16.43389755	     38.60143901	      0.00000000	     -9.20513493	      0.67372221	      0.78393440	      0.00000000	      0.00000000
     10.67500000	      5.61783126	    -38.42085323	      6.67095532	     -0.12495899	      0.85351010	     -1.20981735	     75.19178162	    -18.62559138	    -18.80609673	     45.45429405	      0.00000000	      8.93984926	      0.79332709	      5.21775284	      0.00000000	      0.00000000	     72.13662160	     -5.41117022	    -17.40181902	     38.17920691	      0.00000000	     -9.20173911	      0.66635287	      0.70456534	      0.00000000	      0.00000000
     10.68000000	      5.44496517	    -38.51226800	      6.30157366	     -0.12496631	      0.85423769	     -1.20982729	     74.97819830	    -18.26559201	    -18.84181403	     45.03549413	      0.00000000	      8.41336797	      0.78601765	      4.99852477	      0.00000000	      0.00000000	     72.18478112	     -5.56338429	    -16.96958961	     38.05424601	      0.00000000	     -8.70819682	      0.66417189	      0.54483531	      0.00000000	      0.00000000
     10.68500000	      4.90328049	    -38.52053415	      6.88798976	     -0.12465338	      0.85488208	     -1.21038691	     75.24399589	    -18.26695725	    -18.25025122	     44.97113615	      0.00000000	      8.97045683	      0.78489439	      4.94340039	      0.00000000	      0.00000000	     71.73190300	     -5.70124493	    -18.40037082	     37.75387020	      0.00000000	     -9.19655714	      0.65892934	      0.55629071	      0.00000000	      0.00000000
     10.69000000	      4.59929982	    -38.66196657	      6.44300884	     -0.12480047	      0.85553905	     -1.21023548	     75.09923175	    -17.76535857	    -18.18135481	     44.54548894	      0.00000000	      8.41140811	      0.77746545	      4.69935991	      0.00000000	      0.00000000	     71.84092031	     -5.97596061	    -18.01102473	     37.66864170	      0.00000000	     -8.71649569	      0.65744182	      0.43917541	      0.00000000	      0.00000000
     10.69500000	      4.84099127	    -39.05540599	      6.22707458	     -0.12493929	      0.85594572	     -1.21036976	     75.24827004	    -17.86705987	    -18.82367738	     44.36694363	      0.00000000	      8.46250201	      0.77434925	      4.57222699	      0.00000000	      0.00000000	     72.36256321	     -5.90591770	    -17.46651839	     37.69547101	      0.00000000	     -8.60351380	      0.65791008	      0.28086761	      0.00000000	      0.00000000
     10.70000000	      4.79423385	    -38.37829545	      6.86306238	     -0.12334499	      0.85706638	     -1.21121474	     74.51700905	    -18.34103408	    -18.85452995	     44.20563982	      0.00000000	      9.09809742	      0.77153396	      4.64619414	      0.00000000	      0.00000000	     71.07320038	     -5.57530142	    -18.53069271	     37.06494728	      0.00000000	     -9.13346531	      0.64690537	      0.36621755	      0.00000000	      0.00000000
     10.70500000	      4.45722217	    -38.36207478	      7.06623909	     -0.12308449	      0.85766735	     -1.21150453	     74.54035217	    -18.21249223	    -18.45759930	     44.03667286	      0.00000000	      9.10950837	      0.76858493	      4.54436290	      0.00000000	      0.00000000	     70.77650979	     -5.65035448	    -19.09667480	     36.83055120	      0.00000000	     -9.13099613	      0.64281438	      0.32439913	      0.00000000	      0.00000000
